<svg width="50" height="50" viewBox="0 0 50 50" fill="none" xmlns="http://www.w3.org/2000/svg">
<path d="M33.3599 31.2886L26.0356 23.9644C25.7499 23.6783 25.375 23.5352 25 23.5352C24.625 23.5352 24.25 23.6783 23.9644 23.9644L4.49219 43.4364L6.56392 45.5078L25 27.0714L30.2525 32.3242L22.0703 40.5067L24.142 42.5781L27.4995 39.2207L33.3599 33.3599C33.6459 33.0738 33.7891 32.6989 33.7891 32.3242C33.7891 31.9495 33.6459 31.5747 33.3599 31.2886Z" fill="black"/>
<path d="M43.4362 14.7463L35.2538 22.9287L26.4629 14.1375C25.8887 13.5635 25.1339 13.2783 24.3799 13.2813C23.6334 13.2842 22.888 13.5696 22.3199 14.1375L13.2812 23.1833L15.353 25.2548L24.3917 16.2096L34.2183 26.0358C34.5041 26.3219 34.8792 26.465 35.2539 26.465C35.6286 26.465 36.0039 26.3219 36.2896 26.0358L45.5078 16.8176L43.4362 14.7463Z" fill="black"/>
<path d="M34.5215 14.7461C31.6945 14.7461 29.3945 12.4461 29.3945 9.61914C29.3945 6.79214 31.6945 4.49219 34.5215 4.49219C37.3485 4.49219 39.6484 6.79214 39.6484 9.61914C39.6484 12.4461 37.3485 14.7461 34.5215 14.7461ZM34.5215 7.42188C33.3099 7.42188 32.3242 8.40757 32.3242 9.61914C32.3242 10.8307 33.3099 11.8164 34.5215 11.8164C35.7331 11.8164 36.7188 10.8307 36.7188 9.61914C36.7188 8.40757 35.7331 7.42188 34.5215 7.42188Z" fill="black"/>
</svg>
