<svg width="50" height="50" viewBox="0 0 50 50" fill="none" xmlns="http://www.w3.org/2000/svg">
<path d="M35.2344 31.3398C35.2344 27.7813 40.4336 25.7266 45.9355 25.5C46.194 25.4894 46.446 25.5818 46.6364 25.7568C46.8268 25.9318 46.94 26.1752 46.9512 26.4336C46.9521 26.4479 46.9521 26.4623 46.9512 26.4766V42.1016C46.9514 42.3539 46.8539 42.5966 46.6791 42.7786C46.5043 42.9607 46.2658 43.068 46.0137 43.0781C42.0751 43.0677 38.2584 44.4437 35.2324 46.9648C32.2064 44.4435 28.3899 43.067 24.4512 43.0762C24.199 43.0661 23.9605 42.9588 23.7858 42.7767C23.611 42.5946 23.5135 42.352 23.5137 42.0996V26.4746C23.5137 26.2156 23.6166 25.9672 23.7997 25.7841C23.9828 25.6009 24.2312 25.498 24.4902 25.498H24.5332C30.0352 25.7344 35.2344 27.7891 35.2344 31.3398Z" stroke="black" stroke-width="2" stroke-linecap="round" stroke-linejoin="round"/>
<path d="M35.2344 31.3477V46.9727" stroke="black" stroke-width="2" stroke-linecap="round" stroke-linejoin="round"/>
<path d="M17.1154 39.5917C13.7933 38.7637 10.7651 37.0326 8.36592 34.59C5.96674 32.1475 4.29016 29.0888 3.52172 25.7524C2.75329 22.416 2.92297 18.932 4.01199 15.6861C5.10101 12.4401 7.06689 9.5588 9.69208 7.36096C12.3173 5.16313 15.4994 3.7345 18.8862 3.23319C22.2731 2.73188 25.7326 3.17743 28.8819 4.52054C32.0312 5.86365 34.7475 8.05194 36.7301 10.8432C38.7127 13.6345 39.8844 16.9199 40.1154 20.3359" stroke="black" stroke-width="2" stroke-linecap="round" stroke-linejoin="round"/>
<path d="M15.1484 18.3555L21.5996 21.582L21.6016 10.4492" stroke="black" stroke-width="2" stroke-linecap="round" stroke-linejoin="round"/>
</svg>
