<svg width="50" height="50" viewBox="0 0 50 50" fill="none" xmlns="http://www.w3.org/2000/svg">
<path d="M10.3516 25H19.1406V27.9297H10.3516V25Z" fill="black"/>
<path d="M10.3516 19.1406H25V22.0703H10.3516V19.1406Z" fill="black"/>
<path d="M10.3516 13.2812H25V16.2109H10.3516V13.2812Z" fill="black"/>
<path d="M22.0703 39.6484H7.42188V10.3516H42.5781V25H45.5078V10.3516C45.5078 9.57456 45.1992 8.82938 44.6497 8.27996C44.1003 7.73054 43.3551 7.42188 42.5781 7.42188H7.42188C6.64487 7.42188 5.8997 7.73054 5.35027 8.27996C4.80085 8.82938 4.49219 9.57456 4.49219 10.3516V39.6484C4.49219 40.4254 4.80085 41.1706 5.35027 41.72C5.8997 42.2695 6.64487 42.5781 7.42188 42.5781H22.0703V39.6484Z" fill="black"/>
<path d="M33.7891 39.0479L29.9951 35.2539L27.9297 37.3193L33.7891 43.1787L45.5078 31.46L43.4424 29.3945L33.7891 39.0479Z" fill="black"/>
</svg>
